<svg xmlns="http://www.w3.org/2000/svg" width="40" height="40" viewBox="0 0 40 40" fill="none">
    <g clip-path="url(#clip0_1514_1375)">
        <rect width="20" height="20" fill="#F5F6FA"/>
        <rect x="20" y="20" width="20" height="20" fill="#F5F6FA"/>
        <path d="M10.7788 4.90817C10.7518 4.91063 10.6658 4.91923 10.5883 4.92537C8.80279 5.08633 7.13028 6.04963 6.07099 7.53021C5.48113 8.35344 5.10386 9.28725 4.96131 10.2764C4.91093 10.6216 4.90479 10.7236 4.90479 11.1917C4.90479 11.6599 4.91093 11.7618 4.96131 12.1071C5.30294 14.4674 6.98282 16.4506 9.26116 17.1853C9.66915 17.3168 10.0993 17.4065 10.5883 17.4605C10.7788 17.4814 11.6022 17.4814 11.7927 17.4605C12.6369 17.3672 13.3521 17.1583 14.0575 16.7983C14.1656 16.743 14.1865 16.7282 14.1718 16.716C14.1619 16.7086 13.7011 16.0905 13.1481 15.3435L12.1429 13.9858L10.8833 12.1219C10.1902 11.0971 9.61999 10.2591 9.61508 10.2591C9.61016 10.2579 9.60525 11.0861 9.60279 12.0973C9.5991 13.8678 9.59787 13.9391 9.57575 13.9809C9.5438 14.0411 9.51922 14.0657 9.46761 14.0927C9.42829 14.1123 9.39388 14.116 9.20832 14.116H8.99572L8.93919 14.0804C8.90233 14.0571 8.87529 14.0263 8.85686 13.9907L8.83105 13.9354L8.83351 11.4719L8.8372 9.0071L8.87529 8.95919C8.89495 8.93338 8.93674 8.90021 8.96623 8.88424C9.01661 8.85966 9.03628 8.8572 9.24887 8.8572C9.49956 8.8572 9.54134 8.86703 9.60647 8.9383C9.62491 8.95796 10.3069 9.98515 11.1229 11.2224C11.9389 12.4597 13.0547 14.1492 13.6028 14.9786L14.5982 16.4862L14.6486 16.453C15.0946 16.163 15.5665 15.7502 15.9401 15.3202C16.7352 14.4072 17.2476 13.294 17.4197 12.1071C17.4701 11.7618 17.4762 11.6599 17.4762 11.1917C17.4762 10.7236 17.4701 10.6216 17.4197 10.2764C17.0781 7.91602 15.3982 5.9329 13.1198 5.19814C12.718 5.0679 12.2903 4.9782 11.8111 4.92414C11.6931 4.91185 10.8808 4.89834 10.7788 4.90817ZM13.3521 8.70976C13.4111 8.73925 13.459 8.79577 13.4762 8.85475C13.486 8.88669 13.4885 9.56985 13.486 11.1094L13.4824 13.3186L13.0928 12.7215L12.702 12.1243V10.5184C12.702 9.48015 12.7069 8.89652 12.7143 8.86826C12.734 8.79945 12.777 8.74539 12.836 8.71345C12.8864 8.68764 12.9048 8.68519 13.0977 8.68519C13.2796 8.68519 13.3115 8.68764 13.3521 8.70976Z" fill="black"/>
        <path d="M33.3349 25.3755L32.5236 34.4651L28.8763 35.4763L25.2391 34.4665L24.4286 25.3755H33.3349Z" fill="#E44D26"/>
        <path d="M28.8818 34.7037L31.829 33.8867L32.5223 26.1191H28.8818V34.7037Z" fill="#F16529"/>
        <path d="M27.3045 28.3484H28.8818V27.2334H26.0859L26.1126 27.5325L26.3867 30.6051H28.8818V29.4901H27.4064L27.3045 28.3484ZM27.5558 31.1626H26.4365L26.5927 32.9133L28.8767 33.5473L28.8818 33.5459V32.3859L28.8769 32.3872L27.6352 32.0519L27.5558 31.1626Z" fill="#EBEBEB"/>
        <path d="M25.2572 22.9048H25.8238V23.4646H26.3422V22.9048H26.9088V24.6H26.3422V24.0324H25.8239V24.6H25.2572L25.2572 22.9048ZM27.6539 23.467H27.1551V22.9048H28.7197V23.467H28.2206V24.6H27.654V23.467H27.6539ZM28.968 22.9048H29.5588L29.9222 23.5005L30.2853 22.9048H30.8764V24.6H30.3121V23.7598L29.9222 24.3625H29.9125L29.5224 23.7598V24.6H28.968V22.9048ZM31.1583 22.9048H31.7251V24.0397H32.522V24.6H31.1583V22.9048H31.1583Z" fill="black"/>
        <path d="M28.878 30.6051H30.2509L30.1215 32.0512L28.8779 32.3868V33.5468L31.1637 32.9133L31.1805 32.7249L31.4425 29.7895L31.4697 29.4901H28.878V30.6051ZM28.878 28.3457V28.3484H31.5712L31.5935 28.0978L31.6443 27.5325L31.671 27.2334H28.878V28.3457Z" fill="white"/>
        <path d="M12.6421 24.2079L11.1905 26.7222L9.73888 24.2079H4.90479L11.1905 35.0952L17.4762 24.2079H12.6421Z" fill="#41B883"/>
        <path d="M12.6422 24.208L11.1906 26.7223L9.739 24.208H7.41919L11.1906 30.7402L14.962 24.208H12.6422Z" fill="#34495E"/>
        <path fill-rule="evenodd" clip-rule="evenodd" d="M29.1905 7.19043C27.4127 7.19043 26.3016 8.07932 25.8571 9.8571C26.5238 8.96821 27.3016 8.63487 28.1905 8.8571C28.6976 8.98376 29.0601 9.35191 29.4613 9.75907C30.1149 10.4225 30.8715 11.1904 32.5238 11.1904C34.3016 11.1904 35.4127 10.3015 35.8571 8.52376C35.1905 9.41265 34.4127 9.74599 33.5238 9.52376C33.0166 9.3971 32.6542 9.02895 32.2529 8.62179C31.5994 7.95833 30.8428 7.19043 29.1905 7.19043ZM25.8571 11.1904C24.0794 11.1904 22.9682 12.0793 22.5238 13.8571C23.1905 12.9682 23.9682 12.6349 24.8571 12.8571C25.3643 12.984 25.7268 13.3519 26.128 13.7591C26.7816 14.4225 27.5381 15.1904 29.1905 15.1904C30.9682 15.1904 32.0794 14.3015 32.5238 12.5238C31.8571 13.4127 31.0794 13.746 30.1905 13.5238C29.6833 13.3971 29.3208 13.0289 28.9196 12.6218C28.266 11.9583 27.5095 11.1904 25.8571 11.1904Z" fill="#38BDF8"/>
    </g>
    <defs>
        <clipPath id="clip0_1514_1375">
            <rect width="40" height="40" rx="10" fill="white"/>
        </clipPath>
    </defs>
</svg>