<svg width="42" height="42" viewBox="0 0 42 42" fill="none" xmlns="http://www.w3.org/2000/svg">
<path d="M8.64065 11.4366C8.57847 9.64858 9.97136 7.99989 11.8543 7.99989H31.1485C33.0315 7.99989 34.4244 9.64858 34.3622 11.4366C34.3024 13.154 34.38 15.3788 34.9399 17.1928C35.5016 19.0126 36.4488 20.1625 38.0001 20.3105V21.9862C36.4488 22.1342 35.5016 23.2841 34.9399 25.1038C34.38 26.9178 34.3024 29.1427 34.3622 30.8601C34.4244 32.6481 33.0315 34.2965 31.1485 34.2965H11.8543C9.97136 34.2965 8.57847 32.6478 8.64065 30.8601C8.70047 29.1427 8.62281 26.9178 8.06267 25.1038C7.50121 23.2844 6.55146 22.1342 5.00011 21.9862V20.3105C6.55146 20.1628 7.50121 19.0126 8.06267 17.1928C8.62281 15.3788 8.70021 13.154 8.64065 11.4366Z" fill="url(#paint0_linear_1_34)"/>
<g filter="url(#filter0_d_1_34)">
<path d="M22.3163 28.234C25.3646 28.234 27.2016 26.7415 27.2016 24.2796C27.2016 22.4187 25.8909 21.0714 23.9447 20.8581V20.7806C25.3746 20.548 26.4966 19.2202 26.4966 17.7372C26.4966 15.6243 24.8285 14.2479 22.2865 14.2479H16.567V28.234H22.3163ZM18.7912 16.0217H21.7503C23.3589 16.0217 24.2724 16.7389 24.2724 18.0377C24.2724 19.4237 23.2099 20.1991 21.2836 20.1991H18.7912V16.0217ZM18.7912 26.4603V21.8564H21.7304C23.8355 21.8564 24.9277 22.6318 24.9277 24.1438C24.9277 25.6558 23.8653 26.4603 21.8595 26.4603H18.7912Z" fill="url(#paint1_linear_1_34)"/>
</g>
<defs>
<filter id="filter0_d_1_34" x="15.5358" y="13.4745" width="12.6971" height="16.0486" filterUnits="userSpaceOnUse" color-interpolation-filters="sRGB">
<feFlood flood-opacity="0" result="BackgroundImageFix"/>
<feColorMatrix in="SourceAlpha" type="matrix" values="0 0 0 0 0 0 0 0 0 0 0 0 0 0 0 0 0 0 127 0" result="hardAlpha"/>
<feOffset dy="0.257808"/>
<feGaussianBlur stdDeviation="0.515616"/>
<feColorMatrix type="matrix" values="0 0 0 0 0 0 0 0 0 0 0 0 0 0 0 0 0 0 0.15 0"/>
<feBlend mode="normal" in2="BackgroundImageFix" result="effect1_dropShadow_1_34"/>
<feBlend mode="normal" in="SourceGraphic" in2="effect1_dropShadow_1_34" result="shape"/>
</filter>
<linearGradient id="paint0_linear_1_34" x1="9.90382" y1="8.69584" x2="38.7397" y2="31.5861" gradientUnits="userSpaceOnUse">
<stop stop-color="#9013FE"/>
<stop offset="1" stop-color="#6610F2"/>
</linearGradient>
<linearGradient id="paint1_linear_1_34" x1="17.5732" y1="15.1683" x2="24.0184" y2="26.0691" gradientUnits="userSpaceOnUse">
<stop stop-color="white"/>
<stop offset="1" stop-color="#F1E5FC"/>
</linearGradient>
</defs>
</svg>
