<svg width="18" height="18" viewBox="0 0 18 18" fill="none" xmlns="http://www.w3.org/2000/svg">
<path d="M8.99561 9.00406C8.99561 7.35038 10.3362 6.00293 11.9967 6.00293C13.6504 6.00293 14.9979 7.34357 14.9979 9.00406C14.9979 10.6578 13.6572 12.0052 11.9967 12.0052C10.3431 12.0052 8.99561 10.6578 8.99561 9.00406Z" fill="#1ABCFE"/>
<path d="M3 14.9994C3 13.3457 4.34064 11.9983 6.00113 11.9983H9.00227V14.9994C9.00227 16.6531 7.66163 18.0006 6.00113 18.0006C4.34064 18.0006 3 16.6599 3 14.9994Z" fill="#0ACF83"/>
<path d="M8.99561 0.00680529V6.00227H11.9967C13.6504 6.00227 14.9979 4.66163 14.9979 3.00113C14.9979 1.34745 13.6572 0 11.9967 0H8.99561V0.00680529Z" fill="#FF7262"/>
<path d="M3 3.00895C3 4.66263 4.34064 6.01008 6.00113 6.01008H9.00227V0.0078125H6.00113C4.34064 0.0078125 3 1.34846 3 3.00895Z" fill="#F24E1E"/>
<path d="M3 9.00406C3 10.6578 4.34064 12.0052 6.00113 12.0052H9.00227V6.00293H6.00113C4.34064 6.00293 3 7.35038 3 9.00406Z" fill="#A259FF"/>
</svg>
