<svg width="26" height="26" viewBox="0 0 26 26" fill="none" xmlns="http://www.w3.org/2000/svg">
<g clip-path="url(#clip0_563_1916)">
<path d="M21.8334 5.40088L20.2239 23.4314L12.9891 25.437L5.77433 23.4341L4.1665 5.40088L21.8334 5.40088Z" fill="#E44D26"/>
<path d="M13.0002 23.9041L18.8463 22.2834L20.2216 6.87549L13.0002 6.87549L13.0002 23.9041Z" fill="#F16529"/>
<path d="M9.87121 11.2986H13V9.08691H7.4541L7.50701 9.68027L8.05064 15.7751H13V13.5634H10.0734L9.87121 11.2986ZM10.3697 16.881H8.14946L8.4593 20.3537L12.9898 21.6114L13 21.6086V19.3075L12.9903 19.31L10.5272 18.6449L10.3697 16.881Z" fill="#EBEBEB"/>
<path d="M5.8103 0.5L6.93426 0.5V1.61046L7.96245 1.61046V0.5L9.08648 0.5V3.86274L7.96252 3.86274V2.7367H6.93433V3.86274H5.81037L5.8103 0.5ZM10.5645 1.61517H9.57512V0.5L12.6786 0.5V1.61517H11.6886V3.86274H10.5647V1.61517H10.5645ZM13.1711 0.5L14.3431 0.5L15.064 1.68158L15.7842 0.5L16.9566 0.5V3.86274H15.8372V2.19598L15.064 3.39162H15.0446L14.2708 2.19598V3.86274H13.1711V0.5ZM17.516 0.5L18.6403 0.5V2.75125H20.2209V3.86274H17.5159V0.5H17.516Z" fill="black"/>
<path d="M12.9923 15.7751H15.7157L15.4589 18.6436L12.9922 19.3094V21.6103L17.5263 20.3537L17.5596 19.9801L18.0794 14.1573L18.1333 13.5634H12.9923V15.7751ZM12.9923 11.2932V11.2986H18.3346L18.3789 10.8015L18.4797 9.68027L18.5326 9.08691H12.9923V11.2932Z" fill="white"/>
</g>
<defs>
<clipPath id="clip0_563_1916">
<rect width="25" height="25" fill="white" transform="translate(0.5 0.5)"/>
</clipPath>
</defs>
</svg>
