<svg width="18" height="18" viewBox="0 0 18 18" fill="none" xmlns="http://www.w3.org/2000/svg">
<g clip-path="url(#clip0_534_12903)">
<path d="M16.9516 0.360352L15.5057 16.5585L9.00613 18.3604L2.52451 16.561L1.08008 0.360352L16.9516 0.360352Z" fill="#E44D26"/>
<path d="M9.01611 16.9836L14.2681 15.5276L15.5036 1.68555L9.01611 1.68555L9.01611 16.9836Z" fill="#F16529"/>
<path d="M6.20467 5.65882H9.01552V3.67187L4.0332 3.67188L4.08073 4.20493L4.56912 9.68042H9.01552V7.69348L6.38628 7.69348L6.20467 5.65882ZM6.65249 10.6739H4.6579L4.93625 13.7937L9.00637 14.9235L9.01552 14.921V12.8538L9.00681 12.8561L6.79397 12.2586L6.65249 10.6739Z" fill="#EBEBEB"/>
<path d="M9.00885 9.68042H11.4556L11.2249 12.2573L9.00879 12.8555L9.00879 14.9226L13.0822 13.7937L13.112 13.458L13.579 8.22703L13.6275 7.69348H9.00885V9.68042ZM9.00885 5.65396V5.65882H13.8083L13.8481 5.21224L13.9387 4.20493L13.9861 3.67187L9.00885 3.67188V5.65396Z" fill="white"/>
</g>
<defs>
<clipPath id="clip0_534_12903">
<rect width="18" height="18" fill="white"/>
</clipPath>
</defs>
</svg>
