<svg width="42" height="42" viewBox="0 0 42 42" fill="none" xmlns="http://www.w3.org/2000/svg">
<path d="M5.00003 5.00061H37.9998V38.0006H5.00003V5.00061Z" fill="#F0DB4F"/>
<path d="M35.2992 30.13C35.0575 28.6245 34.0758 27.36 31.1679 26.1808C30.1578 25.7166 29.0316 25.3842 28.6961 24.6187C28.5769 24.1732 28.5611 23.9222 28.6365 23.6526C28.8529 22.7774 29.8976 22.5045 30.7256 22.7555C31.2589 22.9342 31.7637 23.3452 32.0682 24.0008C33.4922 23.0787 33.4893 23.0847 34.4836 22.451C34.1196 21.8866 33.9253 21.6262 33.687 21.3847C32.8305 20.4281 31.6635 19.9354 29.7972 19.9731L28.825 20.0988C27.8934 20.3342 27.0055 20.8232 26.4849 21.4788C24.9227 23.2513 25.3682 26.3535 27.2691 27.6302C29.1418 29.0357 31.8929 29.3555 32.2442 30.6699C32.5861 32.2789 31.0617 32.7998 29.5465 32.6148C28.4298 32.3825 27.8087 31.815 27.1373 30.7829C25.9015 31.4981 25.9015 31.4981 24.6309 32.2288C24.9322 32.8876 25.2488 33.1857 25.7539 33.7565C28.1443 36.1811 34.1262 36.062 35.199 32.392C35.2425 32.266 35.5315 31.4256 35.2992 30.13ZM22.9399 20.1674H19.8533L19.8406 28.1474C19.8406 29.8445 19.9284 31.4003 19.6524 31.8772C19.2008 32.8151 18.0307 32.6989 17.4974 32.517C16.9546 32.2502 16.6786 31.8709 16.3589 31.3347C16.2711 31.1807 16.2052 31.0616 16.183 31.0524L13.6735 32.5892C14.0908 33.4457 14.7055 34.189 15.4929 34.672C16.6691 35.3779 18.25 35.5944 19.9034 35.2148C20.9794 34.9013 21.9078 34.2521 22.3939 33.2638C23.0967 31.9681 22.9459 30.3999 22.9396 28.6654C22.9554 25.8355 22.9399 23.0062 22.9399 20.1674Z" fill="#323330"/>
</svg>
