<svg width="852" height="140" viewBox="0 0 852 140" fill="none" xmlns="http://www.w3.org/2000/svg">
<path fill-rule="evenodd" clip-rule="evenodd" d="M394 78.6327C394 53.4898 379.618 37.3265 357.326 37.3265C347.618 37.3265 338.629 40.7388 331.438 46.4857V5H298V137H331.438V85.2775C331.438 72.8857 337.73 65.702 347.798 65.702C356.607 65.702 360.562 71.449 360.562 82.5837V137H394V78.6327ZM510 84.0052C510 87.08 509.819 89.9739 509.458 93.0487H437.046C439.213 104.263 446.256 110.05 456.91 110.05C464.675 110.05 471.356 106.614 474.426 100.826H508.014C501.152 123.073 481.288 137 456.91 137C426.392 137 404 114.753 404 84.9096C404 55.0661 426.211 33 456.91 33C488.331 33 510 55.4278 510 84.0052ZM456.91 59.407C447.158 59.407 440.296 64.6522 437.588 74.4191H476.954C474.065 64.6522 467.022 59.407 456.91 59.407ZM754.592 93.0487C754.953 89.9739 755.134 87.08 755.134 84.0052C755.134 55.4278 733.464 33 702.044 33C671.345 33 649.134 55.0661 649.134 84.9096C649.134 114.753 671.526 137 702.044 137C726.422 137 746.286 123.073 753.148 100.826H719.56C716.49 106.614 709.809 110.05 702.044 110.05C691.39 110.05 684.347 104.263 682.18 93.0487H754.592ZM682.722 74.4191C685.43 64.6522 692.292 59.407 702.044 59.407C712.156 59.407 719.199 64.6522 722.088 74.4191H682.722ZM765.134 101.73C765.495 122.892 781.541 137 808.044 137C834.006 137 851.134 123.616 851.134 103.177C851.134 78.8796 831.256 75.4062 815.826 72.7101L815.256 72.6104C806.061 70.9826 798.669 69.5357 798.669 64.1096C798.669 59.5878 802.275 56.8748 807.683 56.8748C813.633 56.8748 817.78 59.7687 817.78 65.9183H849.331C848.971 46.2035 832.744 33 808.044 33C783.163 33 766.396 45.6609 766.396 65.1948C766.396 88.8887 786.409 93.4104 801.553 95.9426C810.929 97.3896 818.321 99.0174 818.321 104.624C818.321 109.689 813.633 112.221 808.765 112.221C802.455 112.221 797.407 108.965 797.407 101.73H765.134ZM275.122 105.714H288V135H264.783C243.198 135 229.957 121.803 229.957 100.11V63.4132H212V55.4591L255.895 9H262.969V37.3816H287.456V63.4132H263.695V94.5065C263.695 101.376 268.048 105.714 275.122 105.714ZM520 30V68.6082V137H556.402V68.6082V63.016L525.107 30H520ZM598.32 84.051C598.32 94.4078 589.924 102.804 579.567 102.804C569.21 102.804 560.814 94.4078 560.814 84.051C560.814 73.6943 569.21 65.2985 579.567 65.2985C589.924 65.2985 598.32 73.6943 598.32 84.051ZM639.134 30V68.6082V137H602.732V68.6082V63.016L634.027 30H639.134Z" fill="url(#paint0_linear_918_2211)"/>
<path fill-rule="evenodd" clip-rule="evenodd" d="M202 85.1647C202 54.822 180.831 33.3293 151.05 33.3293C142.08 33.3293 134.007 35.6773 127.01 40.0119V1H94V133.749H118.757L121.807 126.525C129.701 133.207 139.748 137 151.05 137C180.831 137 202 115.507 202 85.1647ZM168.272 85.1647C168.272 97.8074 158.944 107.199 146.565 107.199C134.186 107.199 124.857 97.8074 124.857 85.1647C124.857 72.3413 134.186 62.9495 146.565 62.9495C159.123 62.9495 168.272 72.3413 168.272 85.1647ZM42.9679 136.916C68.9016 136.856 86 123.502 86 103.121C86 78.8435 66.0803 75.3696 50.6084 72.6788L50.0362 72.5784C40.8193 70.9519 33.4096 69.5061 33.4096 64.0844C33.4096 59.5663 37.0241 56.8555 42.4458 56.8555C48.4096 56.8555 52.5663 59.7471 52.5663 65.8916H84.1325C83.7711 46.1928 67.506 33 42.747 33C17.8072 33 1 45.6506 1 65.1286C1 88.8033 21.0803 93.3214 36.241 95.8515C45.6386 97.2973 53.0482 98.9238 53.0482 104.526C53.0482 109.918 47.5864 112.247 42.9076 112.107L42.9077 112.148L38.4703 112.233C40.1876 115.463 41.1606 119.148 41.1606 123.061C41.1606 128.297 39.4178 133.126 36.4805 137L42.9679 136.916Z" fill="#020617"/>
<circle cx="18" cy="123" r="17" fill="#008080"/>
<defs>
<linearGradient id="paint0_linear_918_2211" x1="212" y1="71" x2="837" y2="71" gradientUnits="userSpaceOnUse">
<stop stop-color="#008080"/>
<stop offset="1" stop-color="#00D1D1"/>
</linearGradient>
</defs>
</svg>
