<svg width="26" height="26" viewBox="0 0 26 26" fill="none" xmlns="http://www.w3.org/2000/svg">
<g clip-path="url(#clip0_563_1924)">
<path d="M12.1813 0.506728C12.1276 0.511614 11.9565 0.528718 11.8025 0.540936C8.25171 0.861025 4.92571 2.77668 2.81916 5.72101C1.64614 7.35812 0.895894 9.21513 0.612414 11.1821C0.512219 11.8687 0.5 12.0715 0.5 13.0024C0.5 13.9334 0.512219 14.1362 0.612414 14.8228C1.29179 19.5166 4.63245 23.4603 9.16325 24.9215C9.97458 25.183 10.8299 25.3613 11.8025 25.4688C12.1813 25.5104 13.8187 25.5104 14.1975 25.4688C15.8763 25.2831 17.2986 24.8678 18.7014 24.1518C18.9164 24.0419 18.958 24.0126 18.9286 23.9881C18.9091 23.9735 17.9927 22.7444 16.893 21.2588L14.8939 18.5588L12.3891 14.8521C11.0108 12.8143 9.87683 11.1479 9.86706 11.1479C9.85728 11.1454 9.84751 12.7923 9.84262 14.8033C9.83529 18.3242 9.83284 18.466 9.78886 18.549C9.72532 18.6688 9.67644 18.7176 9.5738 18.7714C9.4956 18.8105 9.42717 18.8178 9.05816 18.8178H8.63539L8.52297 18.747C8.44966 18.7005 8.39589 18.6394 8.35924 18.5686L8.30792 18.4586L8.31281 13.5596L8.32014 8.65802L8.39589 8.56273C8.435 8.51142 8.51808 8.44544 8.57673 8.41368C8.67693 8.36481 8.71603 8.35992 9.13881 8.35992C9.63734 8.35992 9.72043 8.37947 9.84995 8.52119C9.88661 8.56028 11.2429 10.603 12.8656 13.0635C14.4883 15.5241 16.7072 18.8838 17.7972 20.5331L19.7766 23.5312L19.8768 23.4652C20.7639 22.8886 21.7023 22.0676 22.4453 21.2124C24.0264 19.3969 25.0455 17.1832 25.3876 14.8228C25.4878 14.1362 25.5 13.9334 25.5 13.0024C25.5 12.0715 25.4878 11.8687 25.3876 11.1821C24.7082 6.48825 21.3675 2.54455 16.8368 1.08338C16.0376 0.824374 15.1872 0.646003 14.2341 0.538492C13.9995 0.514058 12.3842 0.48718 12.1813 0.506728ZM17.2986 8.06671C17.4159 8.12535 17.5112 8.23775 17.5455 8.35504C17.565 8.41857 17.5699 9.77711 17.565 12.8387L17.5577 17.232L16.783 16.0445L16.0059 14.857V11.6634C16.0059 9.59874 16.0156 8.43811 16.0303 8.38191C16.0694 8.24508 16.1549 8.13757 16.2722 8.07404C16.3724 8.02273 16.4091 8.01784 16.7928 8.01784C17.1544 8.01784 17.218 8.02273 17.2986 8.06671Z" fill="black"/>
</g>
<defs>
<clipPath id="clip0_563_1924">
<rect width="25" height="25" fill="white" transform="translate(0.5 0.5)"/>
</clipPath>
</defs>
</svg>
