<svg width="42" height="42" viewBox="0 0 42 42" fill="none" xmlns="http://www.w3.org/2000/svg">
<path d="M34.0472 12.3121L22.0127 5.3242C21.2538 4.89191 20.2656 4.89191 19.5006 5.3242L7.33753 12.3121C6.55428 12.7626 6 13.6095 6 14.5153V28.4724C6 29.3782 6.56874 30.2253 7.352 30.6784L10.5655 32.5036C12.1014 33.2601 12.6443 33.2601 13.3432 33.2601C15.6173 33.2601 16.9164 31.8849 16.9164 29.4863V15.7071C16.9164 15.5125 16.8151 15.2229 16.6241 15.2229H15.0895C14.8952 15.2229 14.4602 15.5125 14.4602 15.7068V29.486C14.4602 30.5493 13.4985 31.6073 11.7011 30.7086L8.38059 28.7947C8.26488 28.732 8.18328 28.6056 8.18328 28.4724V14.5153C8.18328 14.3837 8.33474 14.2516 8.45128 14.1842L20.575 7.20837C20.6883 7.14424 20.8548 7.14424 20.9677 7.20837L32.9436 14.1826C33.0582 14.2516 33.0178 14.3796 33.0178 14.5153V28.4724C33.0178 28.6056 33.0678 28.7352 32.9545 28.7994L20.923 35.7793C20.8198 35.8413 20.6918 35.8413 20.5789 35.7793L17.4931 33.9374C17.4 33.8834 17.2895 33.864 17.2002 33.914C16.3417 34.4006 16.1834 34.4653 15.378 34.7444C15.1799 34.8135 14.8876 34.9333 15.4899 35.2709L19.5284 37.6599C19.914 37.8826 20.3514 37.9999 20.7966 38C21.2448 38 21.6836 37.8837 22.0703 37.6599L34.047 30.6784C34.8302 30.2221 35.2014 29.3782 35.2014 28.4724V14.5153C35.2014 13.6095 34.8302 12.7648 34.0472 12.3121ZM24.5333 26.2608C21.3332 26.2608 20.6282 25.3779 20.3933 23.7866C20.366 23.6152 20.2205 23.4102 20.0461 23.4102H18.4821C18.2886 23.4102 18.133 23.6449 18.133 23.8376C18.133 25.8751 19.2408 28.3439 24.5336 28.3439C28.365 28.3439 30.5616 26.8552 30.5616 24.2205C30.5616 21.6082 28.7967 20.9226 25.081 20.4309C21.3253 19.9344 20.9437 19.6836 20.9437 18.8038C20.9437 18.0784 21.2669 17.1109 24.0478 17.1109C26.5327 17.1109 27.4485 17.6442 27.8254 19.319C27.8576 19.4765 28.0015 19.5895 28.1638 19.5895H29.7342C29.8308 19.5895 29.923 19.5505 29.9907 19.4814C30.0562 19.4072 30.0909 19.3141 30.0821 19.2142C29.839 16.3301 27.9229 14.986 24.0475 14.986C20.6004 14.986 18.544 16.4417 18.544 18.8818C18.544 21.5285 20.59 22.2599 23.8991 22.5871C27.8576 22.9752 28.1655 23.5538 28.1655 24.3324C28.1655 25.6846 27.0798 26.2608 24.5333 26.2608Z" fill="#83CD29"/>
</svg>
