<svg width="26" height="19" viewBox="0 0 26 19" fill="none" xmlns="http://www.w3.org/2000/svg">
<g clip-path="url(#clip0_563_1943)">
<path d="M14.5783 5.29597L13.7227 6.77745L10.7968 1.70955L1.81469 17.2651H7.89617C7.89617 18.0833 8.55946 18.7466 9.37766 18.7466H1.81469C1.28546 18.7466 0.796478 18.4641 0.531906 18.0057C0.267334 17.5474 0.267361 16.9827 0.531977 16.5244L9.51408 0.96881C9.77871 0.510414 10.2678 0.228027 10.7971 0.228027C11.3264 0.228027 11.8155 0.510414 12.0801 0.96881L14.5783 5.29597Z" fill="#00C58E"/>
<path d="M21.062 16.5243L15.4336 6.77738L14.5781 5.2959L13.7225 6.77738L8.09472 16.5243C7.83011 16.9826 7.83008 17.5473 8.09465 18.0057C8.35922 18.464 8.84821 18.7465 9.37744 18.7465H19.7774C20.3068 18.7465 20.796 18.4643 21.0607 18.0059C21.3254 17.5475 21.3254 16.9827 21.0608 16.5243H21.062ZM9.37744 17.265L14.5781 8.25886L19.7774 17.265L9.37744 17.265Z" fill="#2F495E"/>
<path d="M25.0861 18.0057C24.8216 18.464 24.3326 18.7465 23.8034 18.7465H19.7775C20.5957 18.7465 21.259 18.0832 21.259 17.265H23.8003L16.5892 4.77547L15.4337 6.77732L14.5781 5.29584L15.3065 4.03473C15.5712 3.57633 16.0602 3.29395 16.5895 3.29395C17.1188 3.29395 17.6079 3.57633 17.8726 4.03473L25.0861 16.5242C25.3508 16.9826 25.3508 17.5473 25.0861 18.0057Z" fill="#108775"/>
</g>
<defs>
<clipPath id="clip0_563_1943">
<rect width="25" height="18.625" fill="white" transform="translate(0.333496 0.166504)"/>
</clipPath>
</defs>
</svg>
