<svg width="581" height="55" viewBox="0 0 581 55" fill="none" xmlns="http://www.w3.org/2000/svg">
<path opacity="0.1" d="M563.568 54.912C559.236 54.912 554.904 53.8479 550.8 51.6439V38.4199C554.448 41.0039 559.692 43.056 563.264 43.056C566.304 43.056 567.9 41.6119 567.9 39.5599C567.9 32.7199 550.344 31.808 550.344 16.228C550.344 5.89195 558.324 0.647949 567.368 0.647949C571.168 0.647949 575.044 1.55995 578.084 2.92795V15.6959C575.424 13.9479 571.168 12.5039 567.976 12.5039C565.012 12.5039 563.188 13.7199 563.188 15.5439C563.188 21.168 580.744 23.2199 580.744 39.332C580.744 49.82 573.144 54.912 563.568 54.912Z" fill="url(#paint0_linear_1565_1544)"/>
<path opacity="0.1" d="M534.361 41.6881H546.901V54.0001H521.289V1.56006H546.521V13.8721H534.361V21.4721H544.089V33.7841H534.361V41.6881Z" fill="url(#paint1_linear_1565_1544)"/>
<path opacity="0.1" d="M517.028 1.56006V13.8721H508.592V54.0001H495.52V13.8721H487.084V1.56006H517.028Z" fill="url(#paint2_linear_1565_1544)"/>
<path opacity="0.1" d="M476.401 54.0001L475.337 46.0201H467.281L466.217 54.0001H452.537L463.481 1.56006H479.365L490.309 54.0001H476.401ZM468.953 34.1641H473.665L471.309 16.9121L468.953 34.1641Z" fill="url(#paint3_linear_1565_1544)"/>
<path opacity="0.1" d="M441.587 41.6881H451.087V54.0001H428.516V1.56006H441.587V41.6881Z" fill="url(#paint4_linear_1565_1544)"/>
<path opacity="0.1" d="M406.164 1.56006C416.88 1.56006 425.012 9.38806 425.012 19.8001C425.012 30.1361 416.88 37.9641 406.164 37.9641H403.884V54.0001H390.812V1.56006H406.164ZM405.86 25.6521C409.128 25.6521 411.636 23.1441 411.636 19.8001C411.636 16.3801 409.128 13.8721 405.86 13.8721H403.884V25.6521H405.86Z" fill="url(#paint5_linear_1565_1544)"/>
<path opacity="0.1" d="M385.48 54.0001H372.94L372.029 25.3481L367.924 45.3361H356.525L352.496 25.4241L351.585 54.0001H338.969L341.78 1.56006H358.197L362.376 25.8801L366.48 1.56006H382.669L385.48 54.0001Z" fill="url(#paint6_linear_1565_1544)"/>
<path opacity="0.1" d="M323.209 41.6881H335.749V54.0001H310.137V1.56006H335.369V13.8721H323.209V21.4721H332.937V33.7841H323.209V41.6881Z" fill="url(#paint7_linear_1565_1544)"/>
<path opacity="0.1" d="M305.876 1.56006V13.8721H297.44V54.0001H284.368V13.8721H275.932V1.56006H305.876Z" fill="url(#paint8_linear_1565_1544)"/>
<path opacity="0.1" d="M260.422 54.0001H247.882L246.97 25.3481L242.866 45.3361H231.466L227.438 25.4241L226.526 54.0001H213.91L216.722 1.56006H233.138L237.318 25.8801L241.422 1.56006H257.61L260.422 54.0001Z" fill="url(#paint9_linear_1565_1544)"/>
<path opacity="0.1" d="M193.379 54.9121C184.335 54.9121 177.495 48.3761 177.495 39.6361V1.56006H190.491V39.4081C190.491 41.0801 191.707 42.2961 193.379 42.2961C195.051 42.2961 196.267 41.0801 196.267 39.4081V1.56006H209.339V39.6361C209.339 48.3761 202.499 54.9121 193.379 54.9121Z" fill="url(#paint10_linear_1565_1544)"/>
<path opacity="0.1" d="M157.988 54.0001V1.56006H171.06V54.0001H157.988Z" fill="url(#paint11_linear_1565_1544)"/>
<path opacity="0.1" d="M152.656 54.0001H140.116L139.204 25.3481L135.1 45.3361H123.7L119.672 25.4241L118.76 54.0001H106.144L108.956 1.56006H125.372L129.552 25.8801L133.656 1.56006H149.844L152.656 54.0001Z" fill="url(#paint12_linear_1565_1544)"/>
<path opacity="0.1" d="M90.3844 41.6881H102.924V54.0001H77.3124V1.56006H102.544V13.8721H90.3844V21.4721H100.112V33.7841H90.3844V41.6881Z" fill="url(#paint13_linear_1565_1544)"/>
<path opacity="0.1" d="M60.3911 54.0001L51.6511 36.9001H51.2711V54.0001H38.1991V1.56006H52.8671C63.5071 1.56006 71.6391 9.23606 71.6391 19.5721C71.6391 25.5001 68.7511 30.5921 64.1911 33.6321L75.7431 54.0001H60.3911ZM52.5631 13.8721H51.2711V25.5001H52.5631C55.8311 25.5001 58.2631 22.9921 58.2631 19.6481C58.2631 16.3801 55.8311 13.8721 52.5631 13.8721Z" fill="url(#paint14_linear_1565_1544)"/>
<path opacity="0.1" d="M15.848 1.56006C26.564 1.56006 34.696 9.38806 34.696 19.8001C34.696 30.1361 26.564 37.9641 15.848 37.9641H13.568V54.0001H0.495972V1.56006H15.848ZM15.544 25.6521C18.812 25.6521 21.32 23.1441 21.32 19.8001C21.32 16.3801 18.812 13.8721 15.544 13.8721H13.568V25.6521H15.544Z" fill="url(#paint15_linear_1565_1544)"/>
<defs>
<linearGradient id="paint0_linear_1565_1544" x1="289.5" y1="-20" x2="289.5" y2="79" gradientUnits="userSpaceOnUse">
<stop stop-color="white"/>
<stop offset="1" stop-color="white" stop-opacity="0"/>
</linearGradient>
<linearGradient id="paint1_linear_1565_1544" x1="289.5" y1="-20" x2="289.5" y2="79" gradientUnits="userSpaceOnUse">
<stop stop-color="white"/>
<stop offset="1" stop-color="white" stop-opacity="0"/>
</linearGradient>
<linearGradient id="paint2_linear_1565_1544" x1="289.5" y1="-20" x2="289.5" y2="79" gradientUnits="userSpaceOnUse">
<stop stop-color="white"/>
<stop offset="1" stop-color="white" stop-opacity="0"/>
</linearGradient>
<linearGradient id="paint3_linear_1565_1544" x1="289.5" y1="-20" x2="289.5" y2="79" gradientUnits="userSpaceOnUse">
<stop stop-color="white"/>
<stop offset="1" stop-color="white" stop-opacity="0"/>
</linearGradient>
<linearGradient id="paint4_linear_1565_1544" x1="289.5" y1="-20" x2="289.5" y2="79" gradientUnits="userSpaceOnUse">
<stop stop-color="white"/>
<stop offset="1" stop-color="white" stop-opacity="0"/>
</linearGradient>
<linearGradient id="paint5_linear_1565_1544" x1="289.5" y1="-20" x2="289.5" y2="79" gradientUnits="userSpaceOnUse">
<stop stop-color="white"/>
<stop offset="1" stop-color="white" stop-opacity="0"/>
</linearGradient>
<linearGradient id="paint6_linear_1565_1544" x1="289.5" y1="-20" x2="289.5" y2="79" gradientUnits="userSpaceOnUse">
<stop stop-color="white"/>
<stop offset="1" stop-color="white" stop-opacity="0"/>
</linearGradient>
<linearGradient id="paint7_linear_1565_1544" x1="289.5" y1="-20" x2="289.5" y2="79" gradientUnits="userSpaceOnUse">
<stop stop-color="white"/>
<stop offset="1" stop-color="white" stop-opacity="0"/>
</linearGradient>
<linearGradient id="paint8_linear_1565_1544" x1="289.5" y1="-20" x2="289.5" y2="79" gradientUnits="userSpaceOnUse">
<stop stop-color="white"/>
<stop offset="1" stop-color="white" stop-opacity="0"/>
</linearGradient>
<linearGradient id="paint9_linear_1565_1544" x1="289.5" y1="-20" x2="289.5" y2="79" gradientUnits="userSpaceOnUse">
<stop stop-color="white"/>
<stop offset="1" stop-color="white" stop-opacity="0"/>
</linearGradient>
<linearGradient id="paint10_linear_1565_1544" x1="289.5" y1="-20" x2="289.5" y2="79" gradientUnits="userSpaceOnUse">
<stop stop-color="white"/>
<stop offset="1" stop-color="white" stop-opacity="0"/>
</linearGradient>
<linearGradient id="paint11_linear_1565_1544" x1="289.5" y1="-20" x2="289.5" y2="79" gradientUnits="userSpaceOnUse">
<stop stop-color="white"/>
<stop offset="1" stop-color="white" stop-opacity="0"/>
</linearGradient>
<linearGradient id="paint12_linear_1565_1544" x1="289.5" y1="-20" x2="289.5" y2="79" gradientUnits="userSpaceOnUse">
<stop stop-color="white"/>
<stop offset="1" stop-color="white" stop-opacity="0"/>
</linearGradient>
<linearGradient id="paint13_linear_1565_1544" x1="289.5" y1="-20" x2="289.5" y2="79" gradientUnits="userSpaceOnUse">
<stop stop-color="white"/>
<stop offset="1" stop-color="white" stop-opacity="0"/>
</linearGradient>
<linearGradient id="paint14_linear_1565_1544" x1="289.5" y1="-20" x2="289.5" y2="79" gradientUnits="userSpaceOnUse">
<stop stop-color="white"/>
<stop offset="1" stop-color="white" stop-opacity="0"/>
</linearGradient>
<linearGradient id="paint15_linear_1565_1544" x1="289.5" y1="-20" x2="289.5" y2="79" gradientUnits="userSpaceOnUse">
<stop stop-color="white"/>
<stop offset="1" stop-color="white" stop-opacity="0"/>
</linearGradient>
</defs>
</svg>
