<svg width="23" height="26" viewBox="0 0 23 26" fill="none" xmlns="http://www.w3.org/2000/svg">
<g clip-path="url(#clip0_563_1929)">
<path d="M22.1065 13.0024C22.1065 11.549 20.2864 10.1716 17.4958 9.31745C18.1398 6.47321 17.8536 4.21034 16.5924 3.48587C16.3018 3.31593 15.9619 3.23543 15.5907 3.23543V4.2327C15.7964 4.2327 15.9619 4.27295 16.1005 4.34898C16.7087 4.6978 16.9726 6.026 16.7668 7.73434C16.7177 8.15471 16.6372 8.59745 16.5388 9.04913C15.6622 8.83447 14.7052 8.669 13.699 8.56167C13.0953 7.73434 12.4692 6.98303 11.8386 6.32563C13.2965 4.97059 14.665 4.22823 15.5952 4.22823V3.23096C14.3653 3.23096 12.7554 4.10748 11.1276 5.62799C9.49972 4.11643 7.88978 3.24885 6.65996 3.24885V4.24612C7.58568 4.24612 8.9586 4.98401 10.4165 6.3301C9.79041 6.9875 9.16432 7.73434 8.56953 8.56167C7.55884 8.669 6.60182 8.83447 5.72529 9.0536C5.62244 8.60639 5.54641 8.1726 5.49274 7.7567C5.28256 6.04836 5.54194 4.72016 6.14567 4.36686C6.27983 4.28637 6.45424 4.25059 6.65996 4.25059V3.25332C6.2843 3.25332 5.94442 3.33381 5.64927 3.50375C4.39261 4.22823 4.11087 6.48663 4.75933 9.32192C1.97769 10.1806 0.166504 11.5535 0.166504 13.0024C0.166504 14.4559 1.98664 15.8333 4.77721 16.6874C4.13323 19.5317 4.41945 21.7945 5.68057 22.519C5.97126 22.689 6.31114 22.7695 6.68679 22.7695C7.91661 22.7695 9.52656 21.8929 11.1544 20.3724C12.7822 21.884 14.3922 22.7516 15.622 22.7516C15.9976 22.7516 16.3375 22.6711 16.6327 22.5011C17.8893 21.7766 18.1711 19.5183 17.5226 16.683C20.2953 15.8288 22.1065 14.4514 22.1065 13.0024ZM16.2839 10.0196C16.1184 10.5965 15.9127 11.1912 15.6801 11.786C15.4968 11.4283 15.3045 11.0705 15.0943 10.7127C14.8886 10.355 14.6694 10.0061 14.4503 9.66627C15.0853 9.76019 15.698 9.87646 16.2839 10.0196ZM14.2357 14.7823C13.8868 15.3861 13.5291 15.9585 13.1579 16.4907C12.4915 16.5488 11.8163 16.5801 11.1365 16.5801C10.4612 16.5801 9.78594 16.5488 9.12407 16.4951C8.75289 15.963 8.39065 15.395 8.04183 14.7957C7.70195 14.2099 7.39338 13.6151 7.11164 13.0159C7.38891 12.4166 7.70195 11.8173 8.03736 11.2315C8.38618 10.6278 8.74394 10.0553 9.11513 9.52317C9.78146 9.46503 10.4567 9.43372 11.1365 9.43372C11.8118 9.43372 12.4871 9.46503 13.1489 9.51869C13.5201 10.0509 13.8824 10.6188 14.2312 11.2181C14.5711 11.8039 14.8796 12.3987 15.1614 12.998C14.8796 13.5972 14.5711 14.1965 14.2357 14.7823ZM15.6801 14.201C15.9216 14.8002 16.1273 15.3995 16.2973 15.9808C15.7114 16.1239 15.0943 16.2447 14.4548 16.3386C14.6739 15.9943 14.893 15.641 15.0988 15.2787C15.3045 14.921 15.4968 14.5587 15.6801 14.201ZM11.1454 18.9727C10.7295 18.5433 10.3136 18.0648 9.90221 17.5416C10.3047 17.5595 10.7161 17.5729 11.132 17.5729C11.5524 17.5729 11.9683 17.564 12.3753 17.5416C11.9728 18.0648 11.5569 18.5433 11.1454 18.9727ZM7.81822 16.3386C7.18319 16.2447 6.57052 16.1284 5.98467 15.9853C6.15014 15.4084 6.35586 14.8136 6.5884 14.2188C6.77176 14.5766 6.96406 14.9344 7.17425 15.2921C7.38443 15.6499 7.59909 15.9987 7.81822 16.3386ZM11.1231 7.03222C11.539 7.46154 11.9549 7.94005 12.3663 8.46328C11.9638 8.4454 11.5524 8.43198 11.1365 8.43198C10.7161 8.43198 10.3002 8.44092 9.89327 8.46328C10.2958 7.94005 10.7117 7.46154 11.1231 7.03222ZM7.81375 9.66627C7.59462 10.0106 7.37549 10.3639 7.16977 10.7262C6.96406 11.0839 6.77176 11.4417 6.5884 11.7995C6.34691 11.2002 6.1412 10.6009 5.97126 10.0196C6.5571 9.88093 7.17425 9.76019 7.81375 9.66627ZM3.76653 15.2653C2.18341 14.59 1.1593 13.7046 1.1593 13.0024C1.1593 12.3003 2.18341 11.4104 3.76653 10.7396C4.15112 10.5741 4.5715 10.4265 5.00529 10.2879C5.2602 11.1644 5.5956 12.0767 6.01151 13.0114C5.60007 13.9416 5.26914 14.8494 5.01871 15.7215C4.57597 15.5828 4.1556 15.4308 3.76653 15.2653ZM6.1725 21.6559C5.5643 21.3071 5.30045 19.9789 5.50616 18.2705C5.55535 17.8502 5.63585 17.4074 5.73424 16.9558C6.61076 17.1704 7.56779 17.3359 8.57401 17.4432C9.17774 18.2705 9.80383 19.0219 10.4344 19.6792C8.97649 21.0343 7.60804 21.7767 6.67784 21.7767C6.4766 21.7722 6.30666 21.7319 6.1725 21.6559ZM16.7803 18.2482C16.9904 19.9565 16.7311 21.2847 16.1273 21.638C15.9932 21.7185 15.8188 21.7543 15.613 21.7543C14.6873 21.7543 13.3144 21.0164 11.8565 19.6703C12.4826 19.0129 13.1087 18.2661 13.7035 17.4387C14.7142 17.3314 15.6712 17.1659 16.5477 16.9468C16.6506 17.3985 16.7311 17.8323 16.7803 18.2482ZM18.502 15.2653C18.1174 15.4308 17.697 15.5784 17.2632 15.717C17.0083 14.8405 16.6729 13.9282 16.257 12.9935C16.6685 12.0633 16.9994 11.1555 17.2498 10.2834C17.6926 10.4221 18.1129 10.5741 18.5065 10.7396C20.0896 11.4149 21.1137 12.3003 21.1137 13.0024C21.1092 13.7046 20.0851 14.5945 18.502 15.2653Z" fill="#61DAFB"/>
<path d="M11.1321 15.046C12.2608 15.046 13.1759 14.131 13.1759 13.0022C13.1759 11.8735 12.2608 10.9585 11.1321 10.9585C10.0034 10.9585 9.08838 11.8735 9.08838 13.0022C9.08838 14.131 10.0034 15.046 11.1321 15.046Z" fill="#61DAFB"/>
</g>
<defs>
<clipPath id="clip0_563_1929">
<rect width="21.94" height="25" fill="white" transform="translate(0.166504 0.5)"/>
</clipPath>
</defs>
</svg>
