<svg width="18" height="18" viewBox="0 0 18 18" fill="none" xmlns="http://www.w3.org/2000/svg">
<path fill-rule="evenodd" clip-rule="evenodd" d="M3.64516 7.30762L8.99924 17.7871L0 7.30762H3.64516Z" fill="#EA6C00"/>
<path fill-rule="evenodd" clip-rule="evenodd" d="M14.3548 7.30762L9.00076 17.7871L18 7.30762H14.3548Z" fill="#EA6C00"/>
<path fill-rule="evenodd" clip-rule="evenodd" d="M3.64502 7.30762H14.3532L8.9991 17.7871L3.64502 7.30762Z" fill="#FDAD00"/>
<path fill-rule="evenodd" clip-rule="evenodd" d="M8.9991 1.5L3.92682 2.03617L3.64502 7.30775L8.9991 1.5Z" fill="#FDD231"/>
<path fill-rule="evenodd" clip-rule="evenodd" d="M8.99895 1.5L14.0712 2.03617L14.353 7.30775L8.99895 1.5Z" fill="#FDD231"/>
<path fill-rule="evenodd" clip-rule="evenodd" d="M18 7.30771L14.073 2.03613L14.3548 7.30771H18Z" fill="#FDAD00"/>
<path fill-rule="evenodd" clip-rule="evenodd" d="M0 7.30771L3.92696 2.03613L3.64516 7.30771H0Z" fill="#FDAD00"/>
<path fill-rule="evenodd" clip-rule="evenodd" d="M8.9991 1.5L3.64502 7.30775H14.3532L8.9991 1.5Z" fill="#FEEEB7"/>
</svg>
