<svg width="26" height="16" viewBox="0 0 26 16" fill="none" xmlns="http://www.w3.org/2000/svg">
<g clip-path="url(#clip0_563_1957)">
<mask id="mask0_563_1957" style="mask-type:luminance" maskUnits="userSpaceOnUse" x="0" y="0" width="26" height="16">
<path d="M0.5 0.5H25.5V15.5H0.5V0.5Z" fill="white"/>
</mask>
<g mask="url(#mask0_563_1957)">
<path fill-rule="evenodd" clip-rule="evenodd" d="M13 0.5C9.66667 0.5 7.58333 2.16667 6.75 5.5C8 3.83333 9.45833 3.20833 11.125 3.625C12.0759 3.8625 12.7556 4.55278 13.5079 5.3162C14.7333 6.56018 16.1519 8 19.25 8C22.5833 8 24.6667 6.33333 25.5 3C24.25 4.66667 22.7917 5.29167 21.125 4.875C20.1741 4.6375 19.4944 3.94722 18.7421 3.1838C17.5167 1.93981 16.0981 0.5 13 0.5ZM6.75 8C3.41667 8 1.33333 9.66667 0.5 13C1.75 11.3333 3.20833 10.7083 4.875 11.125C5.82593 11.363 6.50556 12.0528 7.25787 12.8162C8.48333 14.0602 9.90185 15.5 13 15.5C16.3333 15.5 18.4167 13.8333 19.25 10.5C18 12.1667 16.5417 12.7917 14.875 12.375C13.9241 12.1375 13.2444 11.4472 12.4921 10.6838C11.2667 9.43981 9.84815 8 6.75 8Z" fill="#38BDF8"/>
</g>
</g>
<defs>
<clipPath id="clip0_563_1957">
<rect width="25" height="15.2778" fill="white" transform="translate(0.5 0.5)"/>
</clipPath>
</defs>
</svg>
