<svg width="42" height="42" viewBox="0 0 42 42" fill="none" xmlns="http://www.w3.org/2000/svg">
<path fill-rule="evenodd" clip-rule="evenodd" d="M21.8458 5.00242C12.6696 4.83864 5.00243 12.2845 5.00003 21.3137C4.99729 30.6026 12.3112 38.0135 21.473 37.9998C30.5495 37.9864 37.8963 30.6032 37.8963 21.496C37.8959 12.5367 30.5827 5.15832 21.8458 5.00242ZM21.4524 37.1716C12.7748 37.1737 5.79598 30.1376 5.79632 21.3873C5.79666 12.8625 12.8838 5.80419 21.4459 5.80111C30.1599 5.79837 37.1027 12.8779 37.1 21.7635C37.0973 30.1523 29.9707 37.1699 21.4524 37.1716ZM29.8111 16.8371C29.4705 16.2759 29.0518 15.7314 28.8592 15.1195C28.6399 14.4232 28.458 13.6307 28.5742 12.9328C28.7715 11.7493 29.6792 11.1617 30.9082 11.0493C24.1843 4.80883 13.618 7.04249 9.72465 13.8229C11.2233 13.7534 12.6542 13.6626 14.0861 13.6434C14.3571 13.6396 14.8056 13.8685 14.8694 14.0809C15.0119 14.5555 14.6131 14.721 14.1889 14.7535C13.7431 14.7885 13.2966 14.8217 12.7789 14.8611L17.8962 30.1064C18.0192 29.9053 18.0699 29.8488 18.0922 29.7826C19.0386 26.9542 19.9904 24.1274 20.9128 21.2907C20.9971 21.032 20.9553 20.6894 20.8628 20.4235C20.3748 19.0149 19.7903 17.6368 19.3624 16.2111C19.0694 15.2349 18.6812 14.6035 17.5275 14.7165C17.3309 14.7357 17.0914 14.3129 16.871 14.0943C17.1373 13.9357 17.4014 13.6434 17.6701 13.6393C20.0195 13.6033 22.3694 13.604 24.7188 13.6413C24.9881 13.6458 25.2523 13.9459 25.5189 14.1087C25.2855 14.3218 25.0847 14.6412 24.812 14.7234C24.3748 14.8553 23.89 14.8303 23.3668 14.8769L28.4902 30.1188C29.2666 27.5408 29.9889 25.1731 30.6906 22.8C31.3176 20.6818 30.9442 18.7031 29.8111 16.8371ZM17.5484 34.7276C17.5169 34.8191 17.5152 34.9205 17.4909 35.0726C20.3889 35.8757 23.23 35.8178 26.139 34.8379L21.6957 22.6674C20.2734 26.801 18.9097 30.7639 17.5484 34.7276ZM15.3093 34.1773L8.61485 15.8133C5.59485 21.7125 7.89223 30.7132 15.3093 34.1773ZM33.9666 15.1942C33.8741 16.22 33.9385 17.362 33.6442 18.4019C32.951 20.8525 32.1037 23.2609 31.2878 25.6758C30.4011 28.3004 29.4787 30.9133 28.5718 33.5314C32.8331 31.0055 35.1747 27.2773 35.5475 22.3769C35.7599 19.5878 34.7978 15.7256 33.9666 15.1942Z" fill="#3858E9"/>
</svg>
